<svg xmlns="http://www.w3.org/2000/svg" viewBox="0 0 24 24"><path fill="#616161" d="M12 24C5.383 24 0 18.614 0 11.994a12.014 12.014 0 0 1 5.223-9.909.5.5 0 1 1 .56.829 7.457 7.457 0 0 0-.204.144C2.832 5.1 3.657 9.148 3.983 10.364c.982 3.661 3.412 3.644 3.499 3.632a.426.426 0 0 1 .1.006c.028.003.792.111 1.44-.447.64-.55.978-1.61.978-3.061 0-3.651-2.696-5.042-2.724-5.055a.5.5 0 0 1-.192-.725l1-1.501a.502.502 0 0 1 .64-.17c.525.263 1.158.762 1.672 1.209a11.14 11.14 0 0 0-.37-1.604.5.5 0 0 1 .074-.458l1.5-2a.517.517 0 0 1 .8 0l1.5 2a.5.5 0 0 1 .075.458c-.004.01-.233.708-.371 1.604.514-.447 1.147-.946 1.672-1.21.225-.11.5-.039.64.17l1 1.502a.501.501 0 0 1-.19.724C16.613 5.494 14 6.868 14 10.494c0 1.452.338 2.51.978 3.06.647.559 1.41.451 1.444.448a.449.449 0 0 1 .1-.006c.086-.003 2.513.028 3.495-3.632.326-1.215 1.151-5.265-1.597-7.307a10.588 10.588 0 0 0-.202-.142.501.501 0 0 1 .56-.83A12.015 12.015 0 0 1 24 11.994C23.999 18.614 18.616 24 11.999 24z"/><path fill="#ebe8e7" d="M2.739 6.065A10.997 10.997 0 0 0 1 12c0 6.065 4.935 11 11 11s11-4.935 11-11c0-2.134-.62-4.188-1.739-5.935.333 1.901-.065 3.77-.278 4.564C19.854 14.837 16.968 15 16.53 15c-.247.03-1.286.096-2.187-.667C13.452 13.578 13 12.289 13 10.5c0-3.3 1.885-5.015 2.797-5.652l-.452-.679c-.886.584-1.979 1.672-1.991 1.685A.5.5 0 1 1 12.5 5.5c0-1.208.3-2.396.448-2.903L12 1.333l-.948 1.264c.147.507.448 1.695.448 2.903a.5.5 0 0 1-.854.354c-.012-.013-1.105-1.101-1.991-1.685l-.452.679C9.115 5.485 11 7.2 11 10.5c0 1.789-.452 3.078-1.343 3.833-.9.763-1.939.698-2.186.667-.438 0-3.325-.162-4.454-4.37-.213-.795-.611-2.664-.278-4.565z"/><path d="M21.55 6.553c.295.999.45 2.046.45 3.114 0 6.065-4.935 11-11 11-4.084 0-7.647-2.242-9.545-5.555C2.802 19.666 7.016 23 12 23c6.065 0 11-4.935 11-11 0-1.94-.516-3.81-1.45-5.447z" opacity=".1"/><linearGradient id="a" x1="1.091" x2="22.844" y1="6.992" y2="17.135" gradientUnits="userSpaceOnUse"><stop offset="0" stop-color="#fff" stop-opacity=".2"/><stop offset="1" stop-color="#fff" stop-opacity="0"/></linearGradient><path fill="url(#a)" d="M12 24C5.383 24 0 18.614 0 11.994a12.014 12.014 0 0 1 5.223-9.909.5.5 0 1 1 .56.829 7.457 7.457 0 0 0-.204.144C2.832 5.1 3.657 9.148 3.983 10.364c.982 3.661 3.412 3.644 3.499 3.632a.426.426 0 0 1 .1.006c.028.003.792.111 1.44-.447.64-.55.978-1.61.978-3.061 0-3.651-2.696-5.042-2.724-5.055a.5.5 0 0 1-.192-.725l1-1.501a.502.502 0 0 1 .64-.17c.525.263 1.158.762 1.672 1.209a11.14 11.14 0 0 0-.37-1.604.5.5 0 0 1 .074-.458l1.5-2a.517.517 0 0 1 .8 0l1.5 2a.5.5 0 0 1 .075.458c-.004.01-.233.708-.371 1.604.514-.447 1.147-.946 1.672-1.21.225-.11.5-.039.64.17l1 1.502a.501.501 0 0 1-.19.724C16.613 5.494 14 6.868 14 10.494c0 1.452.338 2.51.978 3.06.647.559 1.41.451 1.444.448a.449.449 0 0 1 .1-.006c.086-.003 2.513.028 3.495-3.632.326-1.215 1.151-5.265-1.597-7.307a10.588 10.588 0 0 0-.202-.142.501.501 0 0 1 .56-.83A12.015 12.015 0 0 1 24 11.994C23.999 18.614 18.616 24 11.999 24z"/></svg>