<?xml version="1.0" ?>
<svg xmlns="http://www.w3.org/2000/svg" xmlns:xlink="http://www.w3.org/1999/xlink" id="Layer_1" enable-background="new 0 0 24 24" version="1.1" viewBox="0 0 24 24" xml:space="preserve">
    <g>
        <path fill="#616161" d="M12,24C5.3833008,24,0,18.6141796,0,11.9943819c0-3.8602047,1.8544922-7.4771314,4.9755859-9.7350235   c0.0795898-0.0591097,0.1621094-0.1172423,0.2470703-0.1739094c0.2304688-0.151438,0.5380859-0.0903744,0.6914062,0.1358058   C6.0683594,2.4488997,6.0097656,2.758615,5.7832031,2.9139612c-0.0688477,0.0473855-0.137207,0.0952594-0.2045898,0.1441104   c-2.7470703,2.0419712-1.921875,6.0907407-1.5957031,7.3061528c0.9819336,3.6608934,3.4116211,3.643795,3.4990234,3.6315823   c0.0327148-0.0029306,0.0688477,0.0014658,0.1000977,0.0063505c0.0283203,0.0024433,0.7919922,0.1108923,1.4404297-0.4474745   C9.6621094,13.0041323,10,11.9455309,10,10.49368c0-3.6506343-2.6962891-5.0414219-2.7236328-5.0551   c-0.128418-0.0639949-0.2226562-0.1802602-0.2597656-0.3189969C6.9799805,4.9808464,7.0043945,4.832828,7.0839844,4.7136316   l1-1.5007024c0.1401367-0.2095706,0.4145508-0.2818701,0.6396484-0.1700015   c0.5249023,0.2628183,1.1586914,0.7625639,1.6728516,1.2085733c-0.1386719-0.8954384-0.3676758-1.593519-0.3710938-1.6037776   c-0.0512695-0.1553462-0.0239258-0.3268132,0.074707-0.4577339l1.5-2.0009363c0.1884766-0.2520711,0.6113281-0.2520711,0.7998047,0   l1.5,2.0009363c0.0986328,0.1309206,0.1259766,0.3023877,0.074707,0.4577339   c-0.003418,0.0102587-0.2324219,0.7083392-0.3710938,1.6037776c0.5141602-0.4460094,1.1479492-0.945755,1.6728516-1.2085733   c0.2246094-0.1118686,0.5-0.0395691,0.6396484,0.1700015l1,1.5007024c0.0791016,0.1187077,0.1030273,0.2662377,0.0668945,0.4044862   c-0.0361328,0.138248-0.1303711,0.255002-0.2578125,0.3194852C16.6137695,5.4942703,14,6.86796,14,10.49368   c0,1.4518509,0.3378906,2.5104523,0.9775391,3.0610027c0.6479492,0.5578785,1.4106445,0.4504061,1.4443359,0.4469862   c0.03125-0.0043964,0.065918-0.0087929,0.1000977-0.0058622c0.0864258-0.0024424,2.5131836,0.0278454,3.4951172-3.6315823   c0.3261719-1.2154121,1.1513672-5.2656474-1.5966797-7.3071299c-0.0664062-0.047874-0.1337891-0.0952594-0.2021484-0.1421564   c-0.2265625-0.1553462-0.2856445-0.4655499-0.1318359-0.6931953c0.1533203-0.2281342,0.4628906-0.2891979,0.690918-0.1362944   c0.0859375,0.0571556,0.1689453,0.1157768,0.2495117,0.1758635C22.1464844,4.5196929,24,8.135643,24,11.9943819   C24,18.6141796,18.6166992,24,12,24z"/>
        <path fill="#ebe8e7" d="M2.7387695,6.0649414C1.6191406,7.8125,1,9.8657227,1,12c0,6.0654297,4.9345703,11,11,11   s11-4.9345703,11-11c0-2.1342773-0.6191406-4.1875-1.7387695-5.9350586   c0.3330078,1.9013672-0.0649414,3.7700195-0.2783203,4.5644531c-1.1289062,4.2080078-4.0151367,4.3710938-4.453125,4.3710938   c-0.0004883,0-0.0004883,0-0.0004883,0c-0.246582,0.0302734-1.2856445,0.0952148-2.1865234-0.6679688   C13.4516602,13.5776367,13,12.2885742,13,10.5c0-3.2993164,1.8852539-5.0151367,2.7973633-5.6523438l-0.4521484-0.6782227   c-0.8862305,0.5834961-1.9790039,1.6713867-1.9916992,1.684082c-0.1430664,0.1430664-0.3579102,0.184082-0.5449219,0.1083984   C12.621582,5.8842773,12.5,5.7021484,12.5,5.5c0-1.2075195,0.3007812-2.3955078,0.4477539-2.9033203L12,1.3334961   l-0.9477539,1.2631836C11.1992188,3.1044922,11.5,4.2924805,11.5,5.5c0,0.2021484-0.121582,0.3842773-0.3085938,0.4619141   c-0.1855469,0.0766602-0.4013672,0.034668-0.5449219-0.1083984c-0.0126953-0.0126953-1.1054688-1.1005859-1.9916992-1.684082   L8.2026367,4.8476562C9.1147461,5.4848633,11,7.2006836,11,10.5c0,1.7885742-0.4516602,3.0776367-1.3427734,3.8325195   c-0.9008789,0.7631836-1.9389648,0.6982422-2.1860352,0.6679688H7.4702148c-0.4375,0-3.3242188-0.1625977-4.453125-4.3710938   C2.8037109,9.8349609,2.4057617,7.9663086,2.7387695,6.0649414z"/>
        <path d="M21.5501709,6.5530396C21.8450928,7.5518799,22,8.5990601,22,9.6665039c0,6.0654297-4.9345703,11-11,11   c-4.0835571,0-7.6469727-2.2416382-9.5446167-5.5541992C2.8018799,19.6656494,7.0159912,23,12,23c6.0654297,0,11-4.9345703,11-11   C23,10.0603027,22.4838867,8.1902466,21.5501709,6.5530396z" opacity="0.1"/>
        <linearGradient id="SVGID_1_" x1="1.0912228" x2="22.8436146" y1="6.9920549" y2="17.1353626" gradientUnits="userSpaceOnUse">
            <stop offset="0" style="stop-color:#FFFFFF;stop-opacity:0.2"/>
            <stop offset="1" style="stop-color:#FFFFFF;stop-opacity:0"/>
        </linearGradient>
        <path fill="url(#SVGID_1_)" d="M12,24C5.3833008,24,0,18.6141796,0,11.9943819   c0-3.8602047,1.8544922-7.4771314,4.9755859-9.7350235c0.0795898-0.0591097,0.1621094-0.1172423,0.2470703-0.1739094   c0.2304688-0.151438,0.5380859-0.0903744,0.6914062,0.1358058C6.0683594,2.4488997,6.0097656,2.758615,5.7832031,2.9139612   c-0.0688477,0.0473855-0.137207,0.0952594-0.2045898,0.1441104c-2.7470703,2.0419712-1.921875,6.0907407-1.5957031,7.3061528   c0.9819336,3.6608934,3.4116211,3.643795,3.4990234,3.6315823c0.0327148-0.0029306,0.0688477,0.0014658,0.1000977,0.0063505   c0.0283203,0.0024433,0.7919922,0.1108923,1.4404297-0.4474745C9.6621094,13.0041323,10,11.9455309,10,10.49368   c0-3.6506343-2.6962891-5.0414219-2.7236328-5.0551c-0.128418-0.0639949-0.2226562-0.1802602-0.2597656-0.3189969   C6.9799805,4.9808464,7.0043945,4.832828,7.0839844,4.7136316l1-1.5007024   c0.1401367-0.2095706,0.4145508-0.2818701,0.6396484-0.1700015c0.5249023,0.2628183,1.1586914,0.7625639,1.6728516,1.2085733   c-0.1386719-0.8954384-0.3676758-1.593519-0.3710938-1.6037776c-0.0512695-0.1553462-0.0239258-0.3268132,0.074707-0.4577339   l1.5-2.0009363c0.1884766-0.2520711,0.6113281-0.2520711,0.7998047,0l1.5,2.0009363   c0.0986328,0.1309206,0.1259766,0.3023877,0.074707,0.4577339c-0.003418,0.0102587-0.2324219,0.7083392-0.3710938,1.6037776   c0.5141602-0.4460094,1.1479492-0.945755,1.6728516-1.2085733c0.2246094-0.1118686,0.5-0.0395691,0.6396484,0.1700015l1,1.5007024   c0.0791016,0.1187077,0.1030273,0.2662377,0.0668945,0.4044862c-0.0361328,0.138248-0.1303711,0.255002-0.2578125,0.3194852   C16.6137695,5.4942703,14,6.86796,14,10.49368c0,1.4518509,0.3378906,2.5104523,0.9775391,3.0610027   c0.6479492,0.5578785,1.4106445,0.4504061,1.4443359,0.4469862c0.03125-0.0043964,0.065918-0.0087929,0.1000977-0.0058622   c0.0864258-0.0024424,2.5131836,0.0278454,3.4951172-3.6315823c0.3261719-1.2154121,1.1513672-5.2656474-1.5966797-7.3071299   c-0.0664062-0.047874-0.1337891-0.0952594-0.2021484-0.1421564c-0.2265625-0.1553462-0.2856445-0.4655499-0.1318359-0.6931953   c0.1533203-0.2281342,0.4628906-0.2891979,0.690918-0.1362944c0.0859375,0.0571556,0.1689453,0.1157768,0.2495117,0.1758635   C22.1464844,4.5196929,24,8.135643,24,11.9943819C24,18.6141796,18.6166992,24,12,24z"/>
    </g>
    <g/>
    <g/>
    <g/>
    <g/>
    <g/>
    <g/>
    <g/>
    <g/>
    <g/>
    <g/>
    <g/>
    <g/>
    <g/>
    <g/>
    <g/>
</svg>
